<svg xmlns="http://www.w3.org/2000/svg" id="Layer_1" viewBox="0 0 4096 4096"><defs><style>.st0{fill:#fff}</style></defs><path id="Room_07" d="M360 2847h428l-3-77 247-1v-760h-95v-69H471v609H360z" class="st0"/><path id="Room_01" d="M471 1940v-804h317l.6-49.48H1034V1876h-95v64z" class="st0"/><path id="Room_08" d="M1241 2007v395h-209v388h289v-15h306v-768z" class="st0"/><path id="Room_09" d="M1627 2007h482v781.28l-217 3.62V2775h-265z" class="st0"/><path id="Room_10" d="M2109 2007h483v778h-215v-19h-268z" class="st0"/><path id="Room_11" d="M2592 2007h537v389h327v359h-864z" class="st0"/><path id="Room_06" d="M2957.76 1874.35h448.69v-412.49h81.93l34.29-18.1v-320.09h-564.91z" class="st0"/><path id="Room_05" d="M2957.76 1874.35h-482.99v-743.06h262.93v-40.96h220.06z" class="st0"/><path id="Room_04" d="M2474.77 1874.35h-481.08v-743.06h264.83l7.62-40.96h208.63z" class="st0"/><path id="Room_03" d="M1993.69 1874.35h-480.13v-787.83h218.15v44.77h261.98z" class="st0"/><path id="Room_02" d="M1513.56 1874.35 1034 1876v-743.76h263.31l3.81-45.72h212.44z" class="st0"/></svg>